<svg
   xmlns="http://www.w3.org/2000/svg"
   width="1em"
   height="1em"
   viewBox="0 0 32 32"
   fill="currentColor">
  <path
     d="M 5.512794,15.033895 A 2.7118643,2.7118643 0 0 1 2.800929,17.745759 2.7118643,2.7118643 0 0 1 0.089065,15.033895 2.7118643,2.7118643 0 0 1 2.800929,12.32203 2.7118643,2.7118643 0 0 1 5.512794,15.033895 Z M 4.288136,4.2210302 A 2.7118643,2.7118643 0 0 0 7.000001,6.9328942 2.7118643,2.7118643 0 0 0 9.711865,4.2210302 2.7118643,2.7118643 0 0 0 7.000001,1.5091652 2.7118643,2.7118643 0 0 0 4.288136,4.2210302 Z M 1.576271,26.694912 A 2.7118643,2.7118643 0 0 0 4.288136,29.406776 2.7118643,2.7118643 0 0 0 7,26.694912 2.7118643,2.7118643 0 0 0 4.288136,23.983047 2.7118643,2.7118643 0 0 0 1.576271,26.694912 Z M 26.487206,15.033895 a 2.7118643,2.7118643 0 0 0 2.711865,2.711864 2.7118643,2.7118643 0 0 0 2.711864,-2.711864 2.7118643,2.7118643 0 0 0 -2.711864,-2.711865 2.7118643,2.7118643 0 0 0 -2.711865,2.711865 z M 27.711864,4.2210302 a 2.7118643,2.7118643 0 0 1 -2.711865,2.711864 2.7118643,2.7118643 0 0 1 -2.711864,-2.711864 2.7118643,2.7118643 0 0 1 2.711864,-2.711865 2.7118643,2.7118643 0 0 1 2.711865,2.711865 z M 30.423729,26.694912 A 2.7118643,2.7118643 0 0 1 27.711864,29.406776 2.7118643,2.7118643 0 0 1 25,26.694912 a 2.7118643,2.7118643 0 0 1 2.711864,-2.711865 2.7118643,2.7118643 0 0 1 2.711865,2.711865 z M 15.949219,3.0019531 A 1.04,1.04 0 0 0 15.152344,3.4375 L 8.4941406,14.042969 A 9.986,9.986 0 0 0 7,19 9,9 0 0 0 25,19 10.063,10.063 0 0 0 23.476562,13.992188 L 16.847656,3.4375 A 1.04,1.04 0 0 0 15.949219,3.0019531 Z M 11.152344,13.566406 21.226562,23.640625 A 6.977,6.977 0 0 1 16,26.001953 V 26 a 7.009,7.009 0 0 1 -7,-7 7.978,7.978 0 0 1 1.21875,-3.943359 z" />
</svg>
