<svg xmlns="http://www.w3.org/2000/svg" viewBox="0 0 12.7 21.431" height="1em" width="0.593em">
  <path
    style="fill:#000"
    d="M6.341 275.569a.456.455 0 0 0-.447.462v2.27l-3.632 18.132a.456.455 0 1 0 .893.178l.393-1.965H9.15l.394 1.965a.456.455 0 1 0 .892-.178l-3.632-18.131v-2.271a.456.455 0 0 0-.463-.462zm.009 5.097 2.71 13.525H3.64z"
    transform="translate(0 -275.569)" />
  <path
    style="fill:#fff"
    d="M.231 277.941h12.237c.002 0 .004.002.004.004v11.299l-3.67 3.659H.231c-.003 0-.005-.002-.005-.004v-14.953c0-.003.002-.004.004-.004z"
    transform="translate(0 -275.569)" />
  <path
    d="m.232 277.713-.087.017-.076.05-.052.078-.017.087v14.953l.017.09.052.076.076.051.087.015h8.664l.066-.065 3.67-3.66.068-.067v-11.393l-.015-.082-.053-.081-.08-.052-.084-.017zm.224.456h11.788v10.847H8.802l-.229.228v3.43l-8.117.003zm8.573 11.302h2.892l-.959.957-1.933 1.927z"
    style="fill:#000"
    transform="translate(0 -275.569)" />
</svg>
