<svg
   xmlns="http://www.w3.org/2000/svg"
   viewBox="0 0 512 170.666667"
   height="0.333333em"
   width="1em"
   fill="currentColor">
  <path
     d="m 20.970913,30.942152 c 9.54694,-6.31939 30.105652,-1.16239 43.451341,-5.89439 12.365108,-4.38432 26.215825,-17.7223798 41.283646,-19.1007798 39.19682,-6.90644996 65.07634,5.3678298 99.0452,5.2295398 15.57602,-0.30542 38.35695,0.283237 52.96473,-2.6022431 24.14053,-4.3243598 72.39997,-19.4178269 79.73788,-0.3170867 7.66136,19.9426598 -12.24944,32.1040098 -30.98431,42.0501698 -26.03597,11.19897 -68.35867,17.300023 -103.31266,21.112427 33.10231,7.60622 48.46353,22.954213 110.97917,17.144253 48.11629,-4.47174 61.16827,-10.27747 111.8635,-24.40168 11.06582,-3.31973 34.78916,-11.07719 50.8346,-11.07719 28.14709,-1.26592 37.41266,4.50522 34.72097,18.77782 -5.49077,29.114698 -30.34616,29.195998 -54.57125,37.115998 -84.03159,27.389 -140.55963,39.47845 -215.82547,56.85263 -10.49113,2.31252 -46.32873,5.1274 -66.24722,2.36094 C 121.83611,162.38211 62.922,136.94899 30.388262,125.80138 21.437884,122.73456 15.889957,122.61117 11.710885,115.7444 -4.388542,89.290932 -6.1797321,50.975062 20.970913,30.942152 Z" />
</svg>
