<svg xmlns="http://www.w3.org/2000/svg" width="1em" height="1em" viewBox="0 0 33.867 33.867">
  <path
    d="M11.913.47c-.098-.274-.353-.46-.752-.471-.398-.012-.755.493-.572.963l11.453 30.765a3.3 3.3 0 0 0 4.23 1.936 3.3 3.3 0 0 0 1.935-4.23c-.299-.94-1.708-.416-1.32.491a1.87 1.87 0 0 1-1.107 2.417 1.868 1.868 0 0 1-2.416-1.106z"
    style="fill:#949494" />
  <path
    d="M24.286 15.514C21.16 7.114 15.631 1.31 11.977 2.67c-3.654 1.36-4.042 9.366-.915 17.766 1.263-1.993 3.29-3.648 5.82-4.59 2.53-.942 5.145-1.014 7.404-.332z"
    style="fill:#f2f2f2" />
  <path style="fill:#ec6e4c"
    d="M66.945 6.22a61.206 61.206 0 0 0-21.675 3.872c13.81-5.14 34.703 16.792 46.525 48.545 3.126-6.871 8.54-12.342 15.691-15.006a27.375 27.375 0 0 1 15.172-1.096c-10.023-22.45-32.183-36.2-55.71-36.314zM45.27 10.093C14.77 21.445-1.345 54.49 7.926 85.24a27.375 27.375 0 0 1 12.193-9.092c7.156-2.663 14.823-2.06 21.69 1.086l.003.002v-.002c4.774-7.53 12.433-13.782 21.995-17.341 9.56-3.56 19.443-3.833 27.98-1.256l.002-.004c-.274-.738-.56-1.467-.844-2.194a43.136 43.136 0 0 0-10.992-1.408c-.612 0-1.229.012-1.846.037-4.935.2-9.995 1.201-14.96 3.051-9.423 3.507-17.091 9.544-22.131 16.904-10.944-30.928-9.236-59.91 4.254-64.931z"
    transform="scale(.26459)" />
</svg>
